<svg width="523" height="111" xmlns="http://www.w3.org/2000/svg"><g fill="none" fill-rule="evenodd"><path d="M504.561 42.895c2.44-2.626 5.615-4.001 9.64-4.001.61 0 1.342 0 2.196.249.976.125 2.074.25 2.93.25.61 0 .61 0 1.098-.125 1.466-2.251 1.952-5.503 1.952-7.253-.367-1.752-2.075-2.752-5.247-3.127-2.197-.375-4.271.25-6.59 1-2.563.877-5.49 2.376-8.297 4.878-.61-2.126-1.585-3.752-3.781-3.752-.245 0-.49 0-.856.126-2.808 1.25-4.27 2.126-5.003 2.876.854 2.5 1.586 5.377 1.586 9.38l-.121 21.134c0 9.756-.123 17.759-.243 24.51 6.587 0 8.052-.125 9.638-1.25.977-1.375 1.098-2.874 1.098-5V42.894zM463.813 28.388c15.374 0 23.183 10.38 23.183 30.514 0 20.885-10.007 31.514-23.549 31.514-15.132 0-23.553-9.129-23.553-30.763 0-21.51 9.885-31.265 23.92-31.265zm-.121 8.38h-.245c-6.468 0-12.202 6.127-12.202 22.385 0 17.257 5.247 23.136 12.447 23.136 6.466 0 12.08-5.754 12.08-23.01 0-16.384-4.76-22.512-12.08-22.512zM437.095 82.036c0-.998-.125-2-.247-2.75-.977.877-6.586 2.626-8.419 2.501-4.88 0-5.976-4.875-6.464-11.88 0-4.126-.126-9.003-.126-14.507 0-5.378.126-11.255.246-17.008 5.246 0 6.833 0 10.005-.125.976 0 1.953-.124 2.93-.25 1.707-.376 2.438-1.75 2.806-8.003h-15.741c0-5.128.121-10.38.242-16.134-5.736.376-8.297 2.503-9.15 5.004l-.609 11.254c-1.832.876-5.614 1.25-7.321 2.752-.977 1-1.102.501-1.102 4.378 1.465.75 3.419 1.25 7.321 1.25v30.89c0 10.13 2.075 21.008 13.423 21.008 3.787 0 7.932-.875 10.252-2.375.978-.751 1.586-1.5 1.829-2.501.125-1.125.125-2.377.125-3.504zM368.398 44.394c0-6.377-.61-9.127-1.34-12.004-.487-2.001-1.71-4.252-4.394-4.252-.121 0-.488 0-.976.125-3.173 1.5-5.001 2.626-5.736 3.5.976 3.003 1.711 6.38 1.711 11.007l-1.223 26.137c.247 13.255 3.05 20.634 17.206 21.259 2.687 0 5.004-.5 7.566-1.376 2.685-.876 5.494-2.375 8.42-4.876.488 2.127 1.586 3.752 3.781 3.752.126 0 .489 0 .857-.124 2.683-1.253 4.27-2.127 4.879-2.879-.852-2.5-1.462-5.377-1.462-9.377V54.024c0-9.63.122-17.633.242-24.386-6.59.125-7.93 0-9.395 1.251-1.097 1.626-1.344 3.25-1.344 5.878v39.768c-2.074 2.627-6.465 4.628-10.736 4.376-5.856 0-9.274-2.373-9.274-13.628l1.218-22.889zM350.223 82.036c0-.998-.12-2-.244-2.75-.974.877-6.589 2.626-8.42 2.501-4.88 0-5.978-4.875-6.466-11.88 0-4.126-.12-9.003-.12-14.507 0-5.378.12-11.255.244-17.008 5.246 0 6.831 0 10.003-.125.978 0 1.955-.124 2.929-.25 1.71-.376 2.442-1.75 2.807-8.003h-15.74c0-5.128.12-10.38.245-16.134-5.735.376-8.298 2.503-9.154 5.004l-.61 11.254c-1.83.876-5.612 1.25-7.321 2.752-.976 1-1.098.501-1.098 4.378 1.464.75 3.418 1.25 7.321 1.25v30.89c0 10.13 2.076 21.008 13.424 21.008 3.782 0 7.93-.875 10.25-2.375.976-.751 1.586-1.5 1.83-2.501.12-1.125.12-2.377.12-3.504zM298.55 28.389c.344 0 .627.003.897.008l.4.01c.534.016 1.105.047 2.081.106 9.028.626 11.958 6.754 11.958 17.384v5.627c0 8.626-.244 18.633-.244 25.262 0 0-.488 6.504 3.416 5.75-.019.278-.035.563-.049.852l-.024.578a85.545 85.545 0 0 0-.049 2.919v.28c-.975 1.376-3.294 2.751-6.466 2.875-2.93 0-6.102-2.75-7.323-4.5-.731.75-2.196 2.126-3.538 2.874-2.685 1.378-5.613 1.626-8.908 1.626-7.81 0-15.253-5-15.253-16.506 0-15.383 13.301-19.26 20.622-20.009 1.22-.125 2.319-.125 3.417-.125 1.586 0 2.929.125 4.026.374v-7.422c-.023-5.442-.702-8.46-5.856-8.46-4.27 0-9.274 1.751-12.812 3.252-1.344.626-2.563 1-3.54 1-1.098-1.25-1.586-3.501-1.83-5.002-.122-.375-.122-.875-.122-1.377 0-.498.122-.999.245-1.375 2.563-2.5 9.883-5.751 18.059-6.002zm2.523 32.39c-1.464 0-2.807.125-4.026.249-5.858 1-10.86 3.628-10.86 11.505 0 6.378 2.684 8.63 6.467 8.878h.854c3.66 0 7.688-1.749 9.395-3.875.122-.25.244-1.001.367-1.751.214-1.323.24-2.94.243-5.107v-9.774c-.731-.125-1.585-.125-2.44-.125zM282.264 4.377c0-.626.122-1.376-.366-2.001C280.8 1.126 277.75 0 272.747 0c-8.542 0-19.768 4.002-21.111 20.635-.366 2.876-.487 6.002-.487 9.38l-4.759 1.125c-1.953.5-2.32 1.124-2.807 5.752 1.341 1 3.66 1.375 7.566 1.5 0 11.255.121 22.012.121 32.266 0 5.127-.121 10.253-.121 15.256 0 1.127 0 2.127.121 2.876.854.125 1.71.25 2.685.25 1.464 0 5.003-.125 6.955-.499.977-.375.977-1.751.977-2.376-.122-13.382-.245-33.642-.245-47.773 3.783 0 7.077 0 9.641-.25a5.16 5.16 0 0 0 1.34-.5c1.71-.625 2.32-1.877 2.686-7.753-1.587.125-4.271.125-6.955.125h-6.59c0-2.752 0-5.503.123-8.129.486-10.755 5.49-13.256 10.98-13.256 1.587 0 3.661.125 4.883.5.976.251 2.074.624 2.44.5.61-.625.976-1.375 1.464-2.5.367-.876.488-1.75.61-2.752zM218.573 28.388c15.375 0 23.184 10.38 23.184 30.514 0 20.885-10.005 31.514-23.55 31.514-15.131 0-23.552-9.129-23.552-30.763 0-21.51 9.884-31.265 23.918-31.265zm-.123 8.38h-.242c-6.468 0-12.204 6.127-12.204 22.385 0 17.257 5.248 23.136 12.446 23.136 6.469 0 12.081-5.754 12.081-23.01 0-16.384-4.758-22.512-12.08-22.512zM179.163 28.639a27.664 27.664 0 0 0-3.539-.25c-10.982 0-18.547 5.75-18.547 15.381 0 4.251 1.708 8.128 5.368 11.756l2.93 2.625c2.807 2.377 6.71 5.254 9.883 7.63 3.783 2.75 5.247 5.253 5.247 8.127 0 4.128-2.684 7.003-7.078 7.503-.731.127-1.586.251-2.317.251-3.417 0-6.712-.875-9.274-2-1.22-.624-2.319-1-3.295-1h-.488c-1.22 1.625-1.952 4.251-1.952 6.254 1.22 3.125 7.686 5.377 15.253 5.377 11.227 0 20.379-5.878 20.379-17.51 0-5.252-1.954-9.378-7.2-13.63-3.66-3.128-9.275-6.88-12.325-9.38-2.928-2.376-3.905-4.252-3.905-6.377 0-3.877 3.294-6.504 8.298-6.504 2.197 0 4.15.376 5.98 1.125 2.073.751 3.903.877 5.612 1.251.975-1.376 1.83-4.001 1.83-5.628-.488-1.501-3.539-4.501-10.86-5.001z" fill="#690"/><path d="M104.46.262c-10.579.145-70.69 4.2-86.597 7.015C2.623 9.986 2.18 25.523 4.663 38.7a14.705 14.705 0 0 1 4.117-.577c3.956 0 8.114 1.55 9.85 5.437 2.16 5.049 2.484 9.747 3.068 14.899.525 5.19 1.434 9.595 3.796 11.935 1.554 1.592 3.815 2.646 7.912 2.646h.384c12.092-.207 20.326-.577 32.357-1.28 14.028-.79 24.606-1.202 38.232-3.56 5.167-.973 6.6-3.723 7.832-9.06 1.413-6.205-.728-16.117 2.382-23.627 1.553-3.43 6.156-5.254 9.829-5.81.525-14.027-3.047-29.686-19.962-29.44z" fill="#9C0"/><path d="M2.622 45.196C1.008 46.436.02 48.008 0 50.348c0 12.698 1.352 20.269 3.228 24.968 1.878 4.697 4.098 6.621 6.6 8.562 2.424 1.845 4.888 3.148 6.723 3.992 1.815.808 2.967 1.12 2.987 1.142l1.656.476-3.916 21.12 4.582.392 6.904-20.893 75.856-4.447 2-.064 8.235 21.62 3.816-.827-3.958-21.39 1.655-.477c0-.02 1.151-.332 2.988-1.16a33.364 33.364 0 0 0 6.72-3.972c3.877-3.019 10.62-10.754 10.639-27.947 0-3.27-.242-6.869-.806-10.82-.567-4.24-4.522-6.35-8.965-6.413-3.613-.02-6.822 1.613-7.65 3.725-2.522 5.564-.665 15.39-2.159 22.877-1.272 6.478-5.57 11.07-12.111 12.103-14.009 2.378-24.728 2.775-38.655 3.6-12.111.704-20.387 1.056-32.519 1.283h-.444c-4.744.022-8.277-1.365-10.658-3.826-2.342-2.442-3.452-5.648-4.118-9.022-1.292-6.744-1.049-12.991-3.49-18.514-.729-1.82-3.272-3.123-6.36-3.103-2.201 0-4.543.683-6.158 1.863z" fill="#690"/></g></svg>