<svg width="96" height="76" xmlns="http://www.w3.org/2000/svg"><path d="M89.14 23.261c3.118.043 5.896 1.49 6.294 4.395.396 2.706.566 5.173.566 7.413-.014 11.78-4.748 17.08-7.47 19.148a23.552 23.552 0 0 1-4.72 2.72c-1.003.443-1.714.67-1.981.756l-.087.028c-.02.007-.03.01-.03.012l-1.161.327 2.778 14.655-2.68.567-5.782-14.813-1.403.044-53.266 3.047-4.847 14.315-3.218-.269 2.75-14.47-1.163-.327a.622.622 0 0 0-.072-.024l-.116-.037c-.311-.098-.989-.32-1.91-.721-1.289-.579-3.019-1.471-4.72-2.735-1.757-1.33-3.317-2.648-4.635-5.866C.95 48.206 0 43.019 0 34.319c.014-1.603.708-2.68 1.842-3.53 1.134-.809 2.75-1.277 4.295-1.277h.028c2.169-.013 3.955.88 4.466 2.127 1.714 3.784 1.544 8.064 2.451 12.684.469 2.312 1.247 4.51 2.892 6.182 1.672 1.686 4.153 2.637 7.484 2.622h.312c8.518-.157 14.33-.397 22.834-.88 9.78-.565 17.307-.837 27.143-2.466 4.593-.708 7.61-3.855 8.504-8.293 1.05-5.129-.255-11.862 1.516-15.674.582-1.447 2.835-2.566 5.372-2.553zM73.35.002c11.878-.169 14.387 10.56 14.018 20.17-2.58.383-5.811 1.63-6.902 3.982-2.183 5.145-.68 11.936-1.673 16.187-.865 3.657-1.87 5.542-5.5 6.209-9.567 1.615-16.995 1.898-26.845 2.438-8.448.482-14.23.736-22.72.878h-.27c-2.877 0-4.465-.723-5.556-1.814-1.658-1.603-2.297-4.62-2.665-8.177-.41-3.53-.638-6.748-2.155-10.208-1.219-2.663-4.138-3.726-6.917-3.726-.963 0-1.956.128-2.89.396C1.53 17.31 1.841 6.664 12.542 4.807c4.803-.828 15.345-1.815 26.394-2.678l1.544-.12C54.658.923 69.265.058 73.351.003z" fill="#9C0" fill-rule="evenodd"/></svg>