<svg width="145" height="128" fill="none" xmlns="http://www.w3.org/2000/svg"><path opacity=".4" fill-rule="evenodd" clip-rule="evenodd" d="M28.275 76.696c-2.531-2.89-3.79-6.79-4.983-10.566-3.038-9.634-6.087-19.312-7.775-29.33-.292-1.732-.541-3.534-.137-5.242.528-2.232 2.086-3.976 3.584-5.608 4.226-4.607 8.553-9.29 13.907-12.199 9.74-5.288 21.279-3.943 32.087-2.473l36.167 4.925c3.98.542 8.524 1.47 10.534 5.244 1.116 2.094 1.173 4.637 1.201 7.058l.214 18.51c.059 5.096-.01 10.627-2.89 14.65-1.918 2.678-4.816 4.275-7.64 5.725-15.346 7.883-31.5 14.022-48.182 17.417-6.535 1.329-22.765-4.32-26.087-8.11z" fill="#fff"/><path d="M53.963 92.744c-2.871-7.255-4.854-16.358-5.896-24.085-.485-3.595-.769-7.214-.933-10.837-.105-2.341-.114-4.703.104-7.04.206-2.225.093-4.306.08-6.559a52.61 52.61 0 011.855-14.243c.463-1.689 1.021-3.378 1.977-4.832 2.215-3.365 6.328-4.918 10.15-5.073 3.882-.16 7.738.947 11.373 2.231 5.866 2.071 11.135 6.33 16.076 10.292 3.735 2.995 8.044 7.229 9.413 12.12 1.675 5.98-1.813 9.534-3.718 14.93-.385 1.095-.418 2.311-.943 3.342-2.812 5.539-4.34 23.55-4.531 28.447-.167 4.29-2.658 13.917-6.123 16.903-4.866 4.193-11.651 5.156-16.948 1.298-4.513-3.292-10.658-13.666-11.936-16.894z" fill="#4BC4AA"/><path d="M95.382.293c20.312-1.316 30.025 1.802 31.524 9.213.629 3.11-.203 6.873-2.328 11.58l-.044.097-.089.194-.089.195-.092.195-.046.099-.093.198-.048.099-.095.2-.049.1-.098.201a5.257 5.257 0 01-.05.101l-.1.204-.051.102-.102.205-.105.207-.106.209-.107.21-.109.212-.111.213-.113.215-.057.108-.115.218-.116.219-.119.22-.12.224-.061.112-.123.226-.124.227-.127.23-.128.232-.13.234-.132.235-.134.238-.136.24-.14.247-.14.246-.208.363-.189.328-.151.263-.359.616-.292.496-.232.393-.394.663-.72 1.205-.539.898-1.339 2.227-.413.689-.396.662-.304.511-.293.496-.284.48-.206.352-.202.344-.26.447-.252.435-.183.318-.238.416-.173.304-.17.3-.165.294-.108.194-.159.286-.156.282-.152.279-.15.275-.146.271-.143.268-.095.178-.093.176-.137.263-.091.174-.089.173-.089.173-.088.172-.087.171-.086.171-.128.256-.085.17-.125.256-.086.176-.043.088-.107.222-.106.222-.104.22-.202.434-.098.216-.097.214-.095.213-.047.106-.092.21-.09.21c-.075.173-.148.346-.218.517l-.085.204c-.166.408-.322.808-.467 1.2l-.071.196a28.65 28.65 0 00-.693 2.16l-.049.18a19.117 19.117 0 00-.544 2.815.58.58 0 11-1.154-.13c.209-1.882.759-3.932 1.644-6.21l.081-.208c.329-.833.702-1.696 1.119-2.594l.105-.224.053-.113.108-.227.11-.229.098-.204.087-.178.132-.267.088-.178.089-.178.135-.268.091-.179.092-.18.092-.18.141-.271.095-.182.145-.275.098-.185.149-.28.101-.188.155-.284.157-.289.161-.292.11-.198.111-.2.17-.303.173-.309.178-.314.245-.428.189-.328.259-.448.2-.345.275-.471.213-.363.219-.37.377-.639.314-.528.244-.408.334-.56 2.122-3.53.709-1.186.446-.75.232-.395.3-.51.36-.618.199-.345.124-.216.193-.339.198-.346.135-.239.133-.236.196-.35.129-.231.127-.229.124-.227.124-.224.181-.334.118-.22.117-.218.116-.216.113-.215.112-.212.11-.211.054-.105.108-.209.106-.207.104-.205.052-.102.102-.203.05-.101.1-.201.049-.1.097-.199.048-.099.095-.196.093-.196.092-.194.091-.193.088-.192.044-.095.087-.19.043-.095c2.034-4.504 2.818-8.05 2.248-10.867-.635-3.142-2.996-5.419-7.46-6.852-4.974-1.596-12.485-2.1-22.857-1.428l-.188.01-.195.012-.2.014-.102.007-.21.015-.214.016-.22.018-.112.01-.228.019-.233.02-.239.022-.243.023-.249.024-.253.025-.257.027-.263.027-.266.03-.271.029-.275.031-.28.032-.283.034-.287.034-.29.036-.295.036-.297.038-.302.039-.304.04-.307.04-.31.043-.314.043-.316.044-.319.046-.321.046-.324.047-.326.049-.328.05-.33.05-.333.051-.167.027-.335.053-.337.054-.168.027-.34.056-.34.056-.341.058-.343.058-.344.06-.344.06-.346.062-.346.062-.173.032-.347.064-.173.032C72.433 4.98 64.43 7.214 57.59 10.169c-8.504 3.673-14.717 8.255-18.058 13.806-3.876 6.442-3.81 14.074.807 23.066a.584.584 0 01-.25.785.58.58 0 01-.782-.251c-4.794-9.337-4.864-17.398-.768-24.204 3.487-5.794 9.886-10.512 18.593-14.273 6.93-2.994 15.01-5.25 23.578-6.849l.35-.064.175-.032.35-.064.174-.031.348-.062.348-.061.347-.06.172-.03.346-.058.343-.058.172-.028.342-.056.34-.056.339-.054.337-.053.168-.026.334-.051.332-.05.33-.05.164-.024.327-.048.162-.024.323-.046.32-.045.319-.044.314-.043.312-.042.309-.041.306-.04.302-.038.299-.038.295-.036.292-.036.288-.034.284-.033.28-.032.276-.03L91.8.6l.268-.029.263-.027.13-.013.255-.026.251-.024.246-.023.242-.022.236-.021.23-.02.226-.018.22-.017.215-.016.209-.015.203-.013.197-.013.19-.01z" fill="#EFD9A5"/><path d="M41.144 51.864l-3.96-6.975 2.359-1.35 3.96 6.976c.37.657.142 1.49-.51 1.864a1.348 1.348 0 01-1.846-.506l-.003-.008z" fill="#F1605C"/><path d="M36.969 45.76a.706.706 0 01.263-.962l2.11-1.208a.706.706 0 01.703 1.225l-2.111 1.209a.706.706 0 01-.965-.265z" fill="#D84E4E"/><path d="M52.745 60.726c-.223.568-.49 1.124-.6 1.605-.356 1.585-.725 3.245-1.905 4.448-.712.723-1.55 1.061-2.562.926-.682-.091-1.323-.435-1.898-.794-.633-.398-1.297-.573-1.85-.909a17.795 17.795 0 01-6.538-6.97c-.978-1.878-1.62-4.084-1.014-6.117.433-1.45 1.457-2.65 2.589-3.65.9-.795 1.92-1.514 3.092-1.771 1.171-.258 2.521.029 3.283.96 1.135 1.385.586 3.465 1.076 5.19.536 1.884 2.327 3.197 4.215 3.69.765.198 1.631.33 2.124.952.559.703.324 1.587-.012 2.44z" fill="#41AB95"/><path d="M54.532 89.512c-3.593-9.858-4.7-20.63-5.173-31.112-.215-4.767.092-9.526.505-14.272.574-6.603.571-13.308 5.362-18.423 3.664-3.911 8.987-4.259 13.833-2.75 6.066 1.892 11.648 5.206 16.48 9.395 2.424 2.103 10.743 8.014 11.023 14.027.191 4.343-1.801 8.641-3.56 12.535-4.763 10.576-4.457 21.951-6.242 33.16-1.281 8.049-2.61 16.619-12.24 17.789-5.918.72-10.346-3.125-13.551-7.706-2.715-3.88-4.813-8.191-6.437-12.643z" fill="#41AB95"/><ellipse opacity=".3" cx="73.07" cy="124.959" rx="13.594" ry="2.815" fill="#333"/><path d="M102.68 60.288l3.309-7.114 2.404 1.13-3.309 7.112a1.325 1.325 0 01-2.452-.104 1.326 1.326 0 01.048-1.024z" fill="#F1605C"/><path d="M105.503 54.411a.69.69 0 01.587-1.25l2.151 1.01a.692.692 0 01-.587 1.25l-2.151-1.01z" fill="#D84E4E"/><path d="M16.402 74.01l11.771-14.048 9.035 7.635-11.771 14.048-9.035-7.635z" fill="#F5EEC1"/><path d="M29.896 61.42l.403.342L18.528 75.81l-.403-.341 11.77-14.048zM31.192 62.516l.404.341-11.772 14.048-.404-.341 11.772-14.048zM32.488 63.612l.403.34L21.121 78l-.404-.34 11.77-14.048zM33.784 64.706l.404.341-11.772 14.049-.404-.341 11.772-14.049zM35.08 65.802l.404.34-11.771 14.05-.404-.342L35.08 65.802z" fill="#C2BB99"/><path d="M18.06 72.033l9.034 7.635-.34.405-9.034-7.635.34-.405zM26.853 61.538l9.035 7.636-.34.405-9.034-7.636.34-.405z" fill="#C2BB99"/><path d="M118.015 74.727l13.243 12.657-8.139 8.59-13.244-12.657 8.14-8.59z" fill="#F5EEC1"/><path d="M116.453 76.367l13.244 12.658-.364.383L116.09 76.75l.363-.383zM115.286 77.599l13.243 12.658-.363.384-13.244-12.659.364-.383zM114.118 78.831l13.243 12.658-.364.384-13.242-12.658.363-.384zM112.95 80.063l13.243 12.658-.363.384-13.244-12.658.364-.384zM111.782 81.296l13.244 12.657-.364.384-13.243-12.657.363-.384z" fill="#C2BB99"/><path d="M119.491 76.147l.382.365-8.14 8.59-.382-.366 8.14-8.59zM129.384 85.602l.382.365-8.14 8.59-.382-.365 8.14-8.59z" fill="#C2BB99"/><path d="M32.004 99.212l17.643 4.811-3.094 11.444-17.643-4.811 3.094-11.444z" fill="#F5EEC1"/><path d="M31.406 101.396l17.643 4.812-.138.511-17.643-4.812.138-.511zM30.962 103.037l17.643 4.812-.138.511-17.643-4.812.138-.511zM30.518 104.678l17.643 4.813-.138.511-17.644-4.812.139-.512zM30.074 106.321l17.643 4.811-.138.511-17.643-4.811.138-.511zM29.63 107.962l17.643 4.812-.138.512-17.643-4.813.138-.511z" fill="#C2BB99"/><path d="M33.973 99.752l.509.139-3.095 11.443-.509-.139 3.095-11.443zM47.154 103.347l.508.138-3.094 11.444-.509-.139 3.095-11.443z" fill="#C2BB99"/><path d="M96.573 29.749s1.973 8.223 6.561 7.92l-.316-4.622-6.245-3.298z" fill="#86993A"/><path d="M101.555 34.112s3.607-12.892-2.572-13.688c-6.18-.796-2.41 9.325-2.41 9.325l4.982 4.363z" fill="#86993A"/><path d="M101.445 29.724s5.564-3.14 7.22 1.812c1.656 4.953-5.531 6.133-5.531 6.133s-1.734-.049-1.689-7.945z" fill="#ACC44B"/><path d="M102.377 29.431s-1.515 7.26.757 8.237c0 0-3.202.245-1.337-14.945.058-.476.763 1.916.7 3.431l-.12 3.277z" fill="#8DA13D"/><path d="M88.046 66.392c-.02.635.01 1.284-.084 1.79-.31 1.668-.638 3.41 0 5.06.382.993 1.048 1.675 2.072 1.977.69.202 1.443.147 2.142.049.767-.108 1.474.005 2.142-.08a18.22 18.22 0 009.115-3.882c1.706-1.38 3.225-3.215 3.48-5.414.18-1.57-.308-3.154-.978-4.591-.535-1.145-1.217-2.265-2.232-3.01-1.015-.746-2.424-1.046-3.536-.481-1.653.841-1.977 3.066-3.158 4.505-1.287 1.572-3.538 2.065-5.547 1.733-.814-.136-1.697-.379-2.423.006-.825.435-.963 1.38-.993 2.338z" fill="#41AB95"/><path d="M65.665 41.389l8.312-.099c.014.725.681 3.904-4.709 3.726-5.39-.178-3.603-3.627-3.603-3.627z" fill="#256357"/><ellipse cx="57.392" cy="29.726" rx="5.089" ry="2.172" transform="rotate(-42.36 57.392 29.726)" fill="#4BC4AA"/><ellipse cx="56.781" cy="34.822" rx="1.516" ry=".951" transform="rotate(-37.23 56.781 34.822)" fill="#4BC4AA"/><ellipse cx="64.769" cy="27.999" rx="2.783" ry="1.747" transform="rotate(-33.94 64.769 28)" fill="#4BC4AA"/><path d="M86.309 79.766c.02-1.307-1.626-1.986-2.486-1.004-.87.996-1.503 3.528-1.413 8.738.205 12.265 2.75 1.525 2.75 1.525s1.085-5.035 1.149-9.259z" fill="#4BC4AA"/><path d="M74.158 39.282c.449-.705 1.057-1.007 1.635-.793.507.188.829.737.82 1.334a.452.452 0 01-.903.003v-.017c.003-.234-.108-.424-.23-.469-.11-.041-.278.031-.484.316l-.03.044-.047.07a.45.45 0 01-.623.139.455.455 0 01-.138-.627zM63.26 38.725c.45-.705 1.058-1.007 1.636-.793.508.188.829.737.82 1.334a.453.453 0 01-.903.003v-.017c.003-.234-.108-.424-.23-.469-.124-.046-.32.05-.561.43a.45.45 0 01-.624.139.455.455 0 01-.137-.627z" fill="#7D4738"/></svg>