<svg width="145" height="128" viewBox="0 0 145 122" fill="none" xmlns="http://www.w3.org/2000/svg"><path opacity=".4" fill-rule="evenodd" clip-rule="evenodd" d="M20.273 100.36c1.487 4.863 3.072 9.922 6.306 13.643 2.168 2.546 8.765 5.745 15.72 7.964h27.943c17.304-4.635 34.122-11.521 50.229-19.942 3.59-1.893 7.277-3.95 9.702-7.442 3.687-5.222 3.752-12.337 3.687-18.963-.161-8.03-.226-15.994-.291-23.957 0-3.101-.064-6.365-1.487-9.107-2.491-4.863-8.248-6.07-13.293-6.756l-45.798-6.3c-13.68-1.892-28.3-3.622-40.622 3.2-6.76 3.785-12.258 9.758-17.595 15.764-1.875 2.122-3.816 4.374-4.495 7.246-.518 2.187-.227 4.471.162 6.756 2.07 12.958 5.983 25.459 9.832 37.894z" fill="#fff"/><mask id="a" style="mask-type:alpha" maskUnits="userSpaceOnUse" x="-4" y="-8" width="154" height="130"><path fill-rule="evenodd" clip-rule="evenodd" d="M8.771 92.168c1.85 6.715 3.82 13.699 7.84 18.837 2.695 3.515 10.898 7.931 19.542 10.995h34.741c21.512-6.399 42.42-15.907 62.444-27.533 4.464-2.614 9.048-5.453 12.063-10.275 4.584-7.21 4.664-17.033 4.584-26.181-.201-11.086-.281-22.081-.362-33.077 0-4.28-.08-8.787-1.849-12.572-3.097-6.714-10.254-8.382-16.526-9.328L74.312-5.663c-17.009-2.614-35.183-5.002-50.503 4.416C15.406 3.98 8.57 12.227 1.936 20.518c-2.333 2.93-4.745 6.039-5.59 10.004-.643 3.02-.28 6.174.202 9.328C-.88 57.74 3.986 75 8.77 92.168z" fill="#fff"/></mask><g mask="url(#a)"><path d="M107.123 82.254c1.912 1.578 4.935 1.586 6.436 3.56 1.701 2.235.4 5.392.309 8.199-.114 3.5 2.008 6.972 5.174 8.467 2.61 1.233 5.628 1.149 8.507.941 2.258-.163 4.556-.397 6.635-1.296l-2.789-5.952-.14.283c-2.078 2.564-5.888 2.864-9.146 2.335-1.595-.26-3.311-.764-4.21-2.107-1.668-2.494.52-5.953-.369-8.82-.711-2.292-3.141-3.527-5.371-4.416-2.51-1-5.065-1.884-7.657-2.648l2.622 1.454h-.001z" fill="#DC514E"/><path d="M130.829 84.691c-.311.243-.628.472-.947.688-1.338.906-2.934 1.716-4.509 1.356-2.925-.67-3.706-4.687-6.32-6.162-2.09-1.18-4.705-.41-6.937.472a87.556 87.556 0 00-7.387 3.326l2.905-.741c2.474-.163 4.679-2.232 7.125-1.826 2.771.459 3.989 3.649 5.849 5.753 2.319 2.624 6.245 3.694 9.575 2.61 1.831-.597 3.392-1.745 4.809-3.074l-4.162-2.403-.001.001z" fill="#DC514E"/><path d="M62.789 93.183c-3.246.6-3.762-.813-4.94-7.186-1.176-6.372 2.25-16.008 5.497-16.607 1.101-.109 2.223 7.301 3.401 13.674 1.177 6.372-.712 9.52-3.958 10.119z" fill="#5883A0"/><path d="M62.88 94.466a3.916 3.916 0 100-7.832 3.916 3.916 0 000 7.832z" fill="#5883A0"/><path d="M54.289 116c-.362-.204-2.168.925-2.553 1.013-1.305.302-2.254.731-3.404 1.467-1.123.72-8.895 4.754-14.661 10.729-.635.658-1.319.801-1.939 1.506-.94 1.071-1.564 2.072-.87 3.65.82 1.867 1.729 3.534 3.573 4.466 1.08.545 5.655 2.799 6.073 3.11.91.676 1.985 1.457 3.164 1.505.451.018.908.034 1.353.112.47.083 1.04.494 1.468.524.224.016.247-.052.446-.102.348-.089.722-.358 1.04-.523a55.227 55.227 0 003.545-2.011c3.175-1.957 6.279-4.238 8.678-7.119 2.275-2.733 3.868-6.254 2.66-9.812-1.328-3.909-5.144-6.578-8.573-8.516V116z" fill="#547D97"/><path d="M57.548 145.312c9.057 0 16.399-7.342 16.399-16.399 0-9.057-7.342-16.399-16.399-16.399-9.057 0-16.399 7.342-16.399 16.399 0 9.057 7.342 16.399 16.4 16.399z" fill="#547D97"/><path d="M81.062 153.275c9.057 0 16.399-7.342 16.399-16.398 0-9.057-7.342-16.399-16.4-16.399-9.056 0-16.398 7.342-16.398 16.399 0 9.056 7.342 16.398 16.399 16.398z" fill="#547D97"/><path d="M58.388 92.967c-1.774 2.604-7.909 11.062-9.433 13.839-2.338 4.259-3.863 7.319-6.826 12.742-1.742 3.189-1.964 6.67-1.964 6.67-.146.637-1.358 3.088.246 2.811-.875 3.265 1.961 7.621 3.45 10.263 1.187 2.105 2.706 4.169 4.242 6.006 1.338 1.601 5.548 4.533 14.423 7.284 8.876 2.751 13.97 1.969 15.545 1.64-.02 2.062 2.578.469 3.49-.074-.104.063.11.649 1.147.617 1.343-.043 1.694-1.486 1.71-2.131 5.474.658 10.31-6.687 12.025-10.035 1.25-2.439 1.272-5.621 1.791-8.286.596-3.057.93-6.118 1.462-9.149.492-2.801.946-5.877 1.054-8.718.074-1.929 1.661-7.346 2-9.255.257-1.448-15.858-1.992-20.37-3.373-4.884-1.497-23.63-11.385-23.993-10.85h.001z" fill="#75A2C1"/><path d="M79.813 126.051c12.952 0 23.452-10.5 23.452-23.452 0-12.952-10.5-23.452-23.452-23.452-12.952 0-23.452 10.5-23.452 23.452 0 12.952 10.5 23.452 23.452 23.452z" fill="#75A2C1"/><path d="M57.228 109.827a13.061 13.061 0 00-.878 2.846c-.087.487-.148.977-.171 1.467-.023.491-.012.981.03 1.468.088.972.315 1.927.671 2.824.177.449.388.884.63 1.295.24.411.513.804.814 1.146a.566.566 0 11-.85.747l-.024-.027v-.002a7.212 7.212 0 01-.459-.677 10.18 10.18 0 01-.974-2.176 10.933 10.933 0 01-.506-3.092 11.359 11.359 0 01.366-3.077c.254-.999.642-1.953 1.108-2.858a.134.134 0 01.182-.058c.064.032.09.108.063.172v.002h-.002zM51.701 111.445a8.512 8.512 0 00-.02 5.003.44.44 0 11-.853.219v-.003a9.137 9.137 0 01.51-5.352.192.192 0 01.254-.103.194.194 0 01.11.236z" fill="#608197"/><path d="M79.931 126.185c12.964 0 23.473-10.509 23.473-23.473 0-12.963-10.51-23.473-23.473-23.473-12.964 0-23.473 10.51-23.473 23.473 0 12.964 10.51 23.473 23.473 23.473z" fill="#75A2C1"/><path d="M103.753 103.412c2.793-1.02 2.074-4.562 2.621-5.584.83-1.55 1.764-3.047 2.541-4.625 1.683-3.414 3.631-6.445 4.481-10.131.35-1.515 3.068-8.875-2.621-15.818-1.209-1.476-2.409-2.975-3.683-4.356-1.514-1.642-.79-2.51-2.804-3.636a46.842 46.842 0 00-5.19-2.466c-1.641-.661-3.224-.534-4.918-.703-.727-.073-1.206-.403-1.937-.552-1.109-.227-1.279 1.383-2.4 1.26.8-1.084-1.05-1.463-1.49-.04 1.415-5.363-5.72-.704-3.592.935-.931-.721-2.774-1.017-2.85.646-.067 1.485.621.495-.533 1.777-2.736 3.038-6.493 6.395-8.781 9.91-1.475 2.265-2.938 4.688-4.204 7.075-.482.91-.774 1.895-1.13 2.84-.01.006-.022.01-.032.015a3.996 3.996 0 00-1.037.744c-.217.218-.656.666-.597 1.012.039.228.384.226.657.18-.5.739-1.04 1.513-1.05 2.347-.007.531 1.18 2.867 2.615 5.371-.398.478-.315 1.507.24 2.479l.103.17c.093.197.217.372.381.506.24.27.498.48.754.618a.746.746 0 01.017.08c-.287.595-.043 1.343.579 1.713.142.084.292.14.444.173.053.07.102.142.148.22.119.608.626 1.4 1.397 2.09.988.887 4.767 3.38 6.181 3.797a41.672 41.672 0 001.986 1.417c3.218 2.129 6.55 2.175 8.02 2.606 3.268.959 15.024 1.037 15.241.583 1.785-1.542.44-2.651.44-2.651l.003-.002z" fill="#4D758D"/><path d="M88.065 58.715l18.965 5.972c1.967.302 5.4.09 7.209-1.91 1.92-2.12 1.547-8.07-.993-8.867-1.223 2.108-2.741 3.731-5.202 3.652-1.472-.047-3.355-.932-4.658-1.52-1.725-.778-3.131-1.98-4.931-2.647-1.89-.7-4.511-1.31-6.726-.733-2.415.63-3.421 2.442-4.105 3.42l.441 2.633z" fill="#4D758D"/><path d="M106.213 60.67c.405.852.88 1.663 1.419 2.423.707.999 1.639 1.968 2.892 2.035.722.04 1.454-.232 2.171-.46.126-.04.261-.08.38-.041.119.038.198.145.256.257.394.76-.023 1.912-.842 2.326-.811.41-1.72.105-2.436-.322a7.704 7.704 0 01-3.011-3.347M105.775 96.602c.602.19 1.141.544 1.56 1.024.167.192.318.406.401.66.061.188.186.915-.151.955-.348.043-.773-.418-.982-.645a3.983 3.983 0 01-.691-1.073c-.141-.32-.248-.675-.483-.914M82.747 59.2a3.446 3.446 0 01-1.703.765 1.93 1.93 0 01-.772-.018c-.19-.048-.87-.333-.724-.64.153-.316.769-.428 1.073-.481a3.97 3.97 0 011.275-.006c.346.052.703.154 1.031.084" fill="#4D758D"/><path d="M87.813 75.165l-7.574-4.5L76.476 77l7.575 4.5 3.762-6.335zM100.782 82.42l-7.574-4.5-3.763 6.335 7.575 4.5 3.762-6.335z" fill="#fff"/><path d="M83.082 75.211c.682-.892.57-2.122-.248-2.746-.818-.625-2.033-.408-2.714.484-.682.892-.57 2.122.248 2.747.818.624 2.033.407 2.715-.485z" fill="#3C4D52"/><path d="M81.629 73.295c.263-.344.22-.819-.096-1.06-.316-.241-.785-.157-1.048.187-.263.345-.22.82.096 1.06.315.242.785.158 1.048-.187z" fill="#fff"/><path d="M95.034 84.143a2.033 2.033 0 100-4.065 2.033 2.033 0 000 4.065z" fill="#3C4D52"/><path d="M94.406 81.61a.785.785 0 100-1.57.785.785 0 000 1.57z" fill="#fff"/><path d="M82.998 72.914c1.276.758 1.702 2.415.994 3.763.03-.044.057-.088.084-.134.814-1.37.404-3.116-.917-3.901-1.32-.784-3.05-.31-3.864 1.06a2.474 2.474 0 00-.077.139c.845-1.266 2.504-1.685 3.78-.927zM96.602 80.81c1.374.817 1.88 2.521 1.177 3.872.03-.043.058-.088.085-.134.813-1.37.32-3.165-1.1-4.01-1.422-.843-3.234-.417-4.047.952a2.509 2.509 0 00-.077.139c.85-1.264 2.589-1.636 3.962-.82v.002z" fill="#547D97"/><path d="M85.894 64.945c-3.117-.834-6.184 1.82-7.9 4.236-1.951 2.746-6.326 8.062-3.819 17.854.77 3.005 3.69 6.396 6.577 8.067 5.303 3.068 11.937 2.295 16.388-1.603 4.963-4.345 7.737-7.624 8.755-12.52.519-2.497-1.726-6.658-3.855-7.82m-21.733 4.27c-1.255-.726-1.627-2.375-.832-3.682.796-1.306 2.459-1.777 3.714-1.05 1.255.727 1.628 2.376.832 3.682-.796 1.307-2.459 1.777-3.714 1.05zm13.472 8.073c-1.393-.796-1.843-2.538-1.007-3.892.836-1.353 2.643-1.805 4.035-1.009 1.393.796 1.843 2.538 1.007 3.892-.836 1.353-2.643 1.805-4.035 1.009z" fill="#CDE8F7"/><path d="M61.438 95.582a4.91 4.91 0 00-2.782 1.467c-.143.151-.285.347-.235.548.034.13.142.229.252.307a2.282 2.282 0 001.905.338c-.452.563-1.229.71-1.928.89-.644.167-1.288.401-1.793.836-.503.434-.846 1.101-.748 1.759.13.88 1.042 1.505 1.931 1.506.89.002 1.719-.503 2.317-1.162.679-.746 1.11-1.679 1.509-2.606.343-.798.673-1.7.37-2.516-.226-.61-.764-1.04-1.291-1.422" fill="#75A2C1"/><path d="M95.372 110.363c-1.386-2.996-.144-3.847 5.738-6.565 5.881-2.72 16.065-1.788 17.451 1.21.379 1.04-6.523 3.963-12.405 6.683-5.882 2.719-9.4 1.669-10.784-1.327v-.001z" fill="#5883A0"/><path d="M97.945 113.713a3.915 3.915 0 100-7.83 3.915 3.915 0 000 7.83z" fill="#5883A0"/><path d="M81.323 69.563c1.325-.604 2.55-.295 3.564.555a.628.628 0 01-.789.977l-.018-.015c-.676-.566-1.409-.751-2.236-.374a.628.628 0 01-.52-1.143zM96.383 77.537a.628.628 0 01.779-.427c1.269.371 2.206 1.22 2.44 2.656a.628.628 0 01-1.24.2c-.146-.895-.707-1.403-1.553-1.65a.628.628 0 01-.426-.78z" fill="#608197"/><path d="M93.878 66.547c5.291 4.082 6.033 5.624 6.033 5.624a3.92 3.92 0 00-1.828-.428c-1.634.001-3.104 1.018-4.3 2.319-.41.445-.787.923-1.128 1.405a24.216 24.216 0 00-2.893 5.446c-.478 1.268-1.246 2.061-2.516 1.495-1.23-.548-4.714-2.212-3.599-4.06a15.928 15.928 0 002.288-7.48c.017-.354.015-.712-.001-1.07-.152-3.12.297-4.167-2.75-5.04-.056-.015 5.402-2.295 10.694 1.788z" fill="#4D758D"/><path d="M90.033 84.51c-.6 1.01-5.363 1.822-6.612 1.08-1.239-.736-2.868-5.125-2.266-6.136.818-1.24 3.601-1.687 5.97-.28 2.37 1.408 3.822 3.796 2.908 5.336z" fill="#3C4D52"/><path d="M81.658 82.6c.375-.802 1.162.656 2.072 1.23.91.573 2.477.488 2.182 1.107-.295.618-2.63.731-3.06.07-.43-.66-1.57-1.604-1.195-2.406l.001-.001z" fill="#FF8E8C"/><path d="M83.23 84.616c-1.66-1.005-1.27-3.862-1.954-5.52-1.032 1.295.259 5.875 1.538 6.477 1.061.598 6.537.669 7.45-1.137-1.897-.174-5.375 1.185-7.034.18z" fill="#C38B32"/><path d="M84.748 81.636c.748.444 5.476 2.878 5.517 2.8 1.334-2.608-1.728-5.795-3.314-6.737-1.47-.873-4.674-.283-5.674 1.398 0 0 2.724 2.096 3.471 2.54z" fill="#F0BC4A"/><path d="M61.245 7.822l32.005 14.2S77.075 53.812 62.802 47.48c-14.273-6.333-1.557-39.658-1.557-39.658zM50.51 56.422s-3.533 1.036-5.614 5.725l19.548 8.673s2.22-3.57.422-8.028l-14.356-6.37zM54.437 50.821s-2.34 5.004-3.461 4.505l14.374 6.378s-1.497-.664.73-5.684L54.438 50.82z" fill="#FFC043"/><path d="M94.776 21.044L60.876 6l-.651 1.468 33.9 15.044.651-1.468zM69.685 47.966l-11.674-5.18-.638 1.437 11.674 5.18.638-1.437zM64.514 70.588l-19.502-8.654a.786.786 0 00-.638 1.437l19.502 8.654a.786.786 0 00.638-1.437zM67.48 52.896l-11.644-5.168-1.39 3.134 11.644 5.167 1.39-3.133zM65.345 61.706l-14.374-6.38-.512 1.155 14.373 6.378.513-1.154z" fill="#F4A944"/><path d="M57.396 44.156s-2.026 1.298-1.629 3.67l11.657 5.172s1.956-1.328 1.657-3.657l-11.686-5.185h.001z" fill="#FFC043"/><path d="M65.682 71.967l-22.406-9.943-1.43 3.22 22.407 9.943 1.43-3.22z" fill="#D59738"/><path d="M89.88 24.784l-.452-.451-13.266 18.395.726.322c2.548 1.13 5.16 1.03 7.765-.134 2.174-.97 4.289-2.654 6.33-4.896 1.596-1.754 3.068-3.76 4.39-5.87.453-.724.864-1.421 1.23-2.076l.064-.115c.226-.407.406-.746.538-1.006l.076-.15.298-.603-7.7-3.416zm-.155 1.342l6.09 2.702-.108.2-.167.306c-.371.669-.792 1.385-1.26 2.131-1.284 2.05-2.711 3.996-4.25 5.687-1.931 2.121-3.913 3.698-5.903 4.587l-.069.03c-1.987.872-3.935 1.036-5.854.408l-.044-.015 11.565-16.036zM61.512 12.197L53.83 8.789l-.263.662-.065.17-.04.109c-.095.253-.2.546-.312.874-.32.936-.641 1.975-.94 3.087-.767 2.854-1.262 5.694-1.355 8.358-.094 2.668.225 5.03 1.031 7.004.943 2.307 2.531 4.026 4.816 5.04l.726.322 4.745-22.218h-.66zm-6.966-1.68l6.09 2.702-4.129 19.335-.032-.018c-3.18-1.811-4.507-5.438-4.332-10.442.09-2.554.569-5.302 1.312-8.068a46.88 46.88 0 01.874-2.885l.04-.12.123-.35.054-.154z" fill="#FFC043"/><path opacity=".2" d="M67.758 52.747c1.659-1.33 1.314-3.401 1.314-3.401l-9.051-4.017-2.046 3.077 9.783 4.34zM94.757 21.029l-14.344-6.364L60.88 44.04l8.817 3.912c11.517-3.119 23.5-25.838 23.5-25.838l.933.393.63-1.478h-.002zM65.284 61.674c-.04-.019-1.303-.644.844-5.794l-7.623-3.383-3.187 4.755 9.967 4.422h-.001zM64.725 70.037c.485-1.203 1.4-4.156.137-7.008l-10.341-4.59-3.653 5.45 13.856 6.148zM50.137 64.978l-2.064 3.08 16.181 7.145 1.404-3.21-15.52-7.015z" fill="#FFF387"/><path opacity=".5" fill-rule="evenodd" clip-rule="evenodd" d="M91.224 21.218S85.497 38.066 67.903 47.17l-1.79-.808s16.442-9.642 22.223-26.425l2.888 1.281v.001z" fill="#FFF387"/><path d="M77.817 63.856c3.478 1.017 14.816 1.497 34.777 21.822.597-1.003 1.868-2.983 1.187-4.07-2.401-3.824-8.2-11.673-17.528-16.334-9.327-4.66-13.429-4.992-15.027-4.985-3.138.685-3.321 3.409-3.409 3.568v-.001z" fill="#FD6763"/><path d="M94.31 63.218a6.746 6.746 0 002.03 4.833c.204.195.503.39.745.246.122-.072.186-.21.238-.34.243-.609.38-1.259.405-1.913.742 1.579 1.895 2.936 3.181 4.115.189.173.388.348.63.43.243.082.543.049.711-.145.263-.303.104-.846.406-1.11l.772 1.086c.122.172.266.357.474.39.427.067.635-.518.595-.949-.109-1.19-.799-2.25-1.595-3.14-.797-.89-1.721-1.666-2.456-2.608" fill="#4D758D"/><path opacity=".75" d="M119.484 58.132l10.478-8.444 1.753 2.581-9.298 5.747-2.933.116z" fill="#FFCA35"/><path opacity=".75" d="M109.205 48.454l5.607-12.233 2.722 1.527-5.756 9.293-2.573 1.413z" fill="#FF9035"/><path opacity=".75" d="M101.399 51.468l-.442-13.45 3.117.151-1.003 10.886-1.672 2.413z" fill="#DE7D2E"/><path d="M94.53 106.956c.375.077.754.217 1.017.495.263.278.38.721.196 1.056-.257.467-.9.509-1.432.491.199.374.585.602.927.853.342.251.68.59.69 1.015.01.424-.518.823-.847.555.807 1.527 1.641 3.211 1.302 4.905a.55.55 0 01-.105.26c-.1.114-.267.136-.42.136-.788-.003-1.54-.382-2.123-.913-.584-.529-1.017-1.202-1.408-1.886-.924-1.621-1.655-3.55-1.074-5.323.076-.231.181-.465.377-.607.156-.113.35-.153.539-.192l1.779-.362s-.174-.636.582-.482v-.001z" fill="#75A2C1"/><path d="M23.818 37.95s-3.771 4.215-10.92 1.598C5.75 36.93 10.953 23.17 16.811 24.392c5.858 1.222 5.2 6.971-.862 9.683-6.062 2.711-14.335-5.884-12.323-8.414l1.215.094s-1.886 2.477 3.44 5.694c5.327 3.217 9.553.89 10.579-.79 1.025-1.68.342-5.25-3.568-4.903-3.91.348-5.986 8.456-4.342 10.742 1.645 2.286 6.022 4.042 8.895 2.936 2.404-.987 2.113-1.534 2.113-1.534l1.86.05zM21.837 57.552s3.772 4.214 10.92 1.597c7.149-2.617 1.946-16.377-3.913-15.155-5.858 1.221-5.199 6.97.863 9.682 6.061 2.712 14.334-5.884 12.322-8.413l-1.215.093s1.886 2.477-3.44 5.694c-5.326 3.218-9.553.89-10.578-.79-1.025-1.68-.343-5.25 3.567-4.902 3.91.347 5.986 8.455 4.342 10.741-1.644 2.286-6.022 4.042-8.894 2.937-2.405-.988-2.114-1.535-2.114-1.535l-1.86.05z" fill="#E59422"/></g></svg>