<svg width="145" height="128" fill="none" xmlns="http://www.w3.org/2000/svg"><g clip-path="url(#clip0_0_61)"><path opacity=".4" fill-rule="evenodd" clip-rule="evenodd" d="M21.273 100.36c1.487 4.863 3.072 9.922 6.306 13.643 2.168 2.546 8.765 5.745 15.72 7.964h27.943c17.304-4.635 34.122-11.521 50.229-19.942 3.59-1.893 7.277-3.95 9.702-7.442 3.687-5.222 3.752-12.337 3.687-18.963-.161-8.03-.226-15.994-.291-23.957 0-3.101-.064-6.365-1.487-9.107-2.491-4.863-8.248-6.07-13.293-6.756l-45.798-6.3c-13.68-1.892-28.3-3.622-40.622 3.2-6.76 3.785-12.258 9.758-17.595 15.764-1.875 2.122-3.816 4.374-4.495 7.246-.518 2.187-.227 4.471.162 6.756 2.07 12.958 5.983 25.459 9.832 37.894z" fill="#fff"/><mask id="a" style="mask-type:alpha" maskUnits="userSpaceOnUse" x="-3" y="6" width="152" height="117"><path fill-rule="evenodd" clip-rule="evenodd" d="M9.605 96.151c1.826 6.043 3.77 12.33 7.74 16.953 2.658 3.164 10.754 7.138 19.287 9.896h34.29c21.232-5.759 41.869-14.316 61.633-24.78 4.405-2.352 8.929-4.907 11.906-9.247 4.524-6.49 4.604-15.33 4.524-23.563-.198-9.977-.278-19.873-.357-29.769 0-3.853-.079-7.908-1.826-11.315-3.055-6.043-10.12-7.544-16.311-8.395L74.295 8.103c-16.788-2.352-34.726-4.502-49.847 3.975-8.294 4.704-15.041 12.126-21.59 19.588-2.301 2.637-4.683 5.435-5.516 9.004-.635 2.717-.278 5.556.198 8.395C.08 65.166 4.883 80.7 9.605 96.152z" fill="#fff"/></mask><g mask="url(#a)"><path d="M136.092 127.625c3.581-7.191 5.013-12.684 5.049-12.684-17.152-1.951-30.652 4.301-40.786 12.684h35.737z" fill="#566672"/><path d="M128.358 127.626l-10.492-11.022-8.558 3.867 5.514 7.155h13.536zM137.202 127.625l5.371-13.623-16.543-.072 10.313 13.695h.859z" fill="#27303D"/><ellipse cx="49.113" cy="107.136" rx="4.476" ry="4.517" fill="#778694"/><ellipse cx="30.815" cy="104.245" rx="3.259" ry="3.288" fill="#394659"/><path d="M47.86 111.472l-17.618-4.011.895-6.468 18.37 1.662-1.647 8.817z" fill="#778694"/><path d="M31.066 100.993l8.164.759-1.754 1.59 3.509 2.421-4.082 1.445 2.507 2.421-9.132-2.096c-.035-.072-.143-4.625.788-6.54z" fill="#394659"/><path d="M56.418 88.164s-8.737 13.262-10.742 15.937c-2.328 3.107-.43 5.528.572 6.287 1.254 1.012 4.083 1.771 5.909-.072 1.253-1.156 12.82-15.43 12.82-15.43l-8.559-6.722z" fill="#778694"/><ellipse cx="60.751" cy="91.525" rx="5.407" ry="5.457" fill="#778694"/><ellipse cx="76.041" cy="76.312" rx="12.211" ry="12.322" fill="#778694"/><path d="M104.581 127.625c-5.085-18.176-16.4-54.132-16.723-54.132-.322 0-23.777.325-23.777.325-2.148 5.854-10.778 34.98-14.896 53.807h55.396z" fill="#778694"/><path d="M52.515 127.626H92.37l-1.683-4.481 1.898.831-5.801-21.393-3.903-5.276 3.08 1.518-3.975-16.514H62.04s-2.327 10.805-3.509 16.767l3.258-1.156-4.117 5.601c-1.504 7.552-4.584 16.623-4.906 18.538l1.754-1.662c-.071.072-1.11 3.433-2.005 7.227z" fill="#F4F4F4"/><ellipse cx="71.887" cy="84.046" rx="10.062" ry="10.154" fill="#F4F4F4"/><path d="M94.483 86.466s12.891 9.323 15.648 11.058c3.259 2.096 2.328 5.023 1.647 6.035-.823 1.409-3.151 3.035-5.586 2.096-1.575-.687-17.367-9.83-17.367-9.83l5.658-9.359z" fill="#778694"/><ellipse cx="91.582" cy="91.092" rx="5.407" ry="5.457" fill="#778694"/><ellipse cx="64.224" cy="52.245" rx="6.41" ry="6.468" fill="#778694"/><path d="M69.81 48.956S61.576 34.61 60.573 34.43c-1.003-.18-4.225 15.54-2.256 20.056 1.97 4.517 11.495-5.529 11.495-5.529z" fill="#778694"/><path d="M65.55 47.728l-4.405-6.468-.645 10.046 5.05-3.578z" fill="#181A1C"/><ellipse cx="96.237" cy="58.352" rx="6.41" ry="6.468" fill="#778694"/><path d="M92.262 53.33s12.891-10.336 13.894-10.083c1.003.253-1.755 15.936-5.157 19.478-3.509 3.541-8.737-9.396-8.737-9.396z" fill="#778694"/><path d="M96.666 53.654l6.482-4.336-3.08 9.648-3.401-5.312z" fill="#181A1C"/><path d="M40.125 68.867s22.13-26.921 41.502-23.814c17.045 2.783 29.112 31.475 30.007 38.269 0-.108-41.072 9.287-71.509-14.455z" fill="#778694"/><path d="M60.429 53.257S50.116 77.323 69.56 88.67c13.643 7.986 30.831 5.53 29.434 19.225" stroke="#CCC" stroke-width=".55"/><path d="M43.205 71.108S56.92 47.294 77.366 50.872c19.301 3.36 31.01 32.992 31.01 32.992s-16.722 4.77-37.813-.434c-8.738-2.06-19.122-6.107-27.358-12.322z" fill="#F4F4F4"/><path d="M81.52 51.992s10.635 3.686 18.692 22.91c0 0-23.455 1.41-27.68-.325-4.225-1.698 1.003-22.404 8.988-22.585z" fill="#394659"/><path d="M73.14 50.402S62.828 48.884 49.292 65.76c0 0 13.965 8.817 17.976 8.456 3.939-.325 11.78-20.887 5.872-23.814z" fill="#394659"/><path d="M76.614 45.199s8.917-4.12 9.382-10.66c0 0 1.576 5.022-.501 8.058 0 0 2.65-.072 3.258-1.518 0 0 .573 5.637-2.578 5.782-3.044.108-9.56-1.662-9.56-1.662z" fill="#778694"/><ellipse cx="64.833" cy="59.111" rx="4.404" ry="4.445" fill="#F4F4F4"/><ellipse cx="63.401" cy="60.556" rx="2.399" ry="2.421" fill="#181A1C"/><ellipse cx="64.905" cy="59.617" rx=".931" ry=".94" fill="#F4F4F4"/><path d="M60.5 58.099s.931-4.517 5.336-3.686c4.154.831 3.402 5.457 3.402 5.457s.43-4.373-3.51-5.132c-4.082-.723-5.227 3.36-5.227 3.36z" fill="#27303D"/><path d="M61.826 73.385c2.256 4.517 8.307 6.215 12.461 3.36-3.08 5.023-12.21 2.602-12.461-3.36z" fill="#D3D9D9"/><path d="M59.319 57.196l4.906-3.94 6.41 2.855v4.337l-8.81 5.203-2.506-8.455z" fill="#394659"/><path d="M68.736 57.195l1.003 2.927c0-.072.394-1.77-1.003-2.927zM60.429 58.352s3.831-2.277 8.809 1.915c0 .036-3.33-7.119-8.81-1.915z" fill="#181A1C"/><path d="M76.363 66.989s-3.903-10.914 5.801-15.286c0 0 1.074-1.662-4.834-2.783-5.909-1.156-5.085 1.012-5.085 1.012-.573 12.07-9.382 14.419-9.382 14.419l13.5 2.638z" fill="#778694"/><path d="M78.297 72.481c-.931 3.541-6.23 5.854-11.136 4.517-4.906-1.337-7.663-5.962-6.733-9.468.931-3.505 5.73-5.276 10.636-3.866 4.905 1.337 8.128 5.276 7.233 8.817z" fill="#F4F4F4"/><ellipse cx="67.839" cy="71.486" rx="3.865" ry="5.409" transform="rotate(-78.421 67.839 71.486)" fill="#181A1C"/><ellipse cx="67.065" cy="73.391" rx="1.77" ry="4.083" transform="rotate(-78.421 67.065 73.39)" fill="#ED908E"/><path fill-rule="evenodd" clip-rule="evenodd" d="M61.18 69.626c.502-2.53 4.155-3.938 8.058-3.107 3.903.83 6.732 3.577 6.23 6.107-.5 2.53-4.153 3.939-8.056 3.108-3.975-.832-6.732-3.578-6.231-6.108zm2.292.904c.43 4.553 5.48 5.059 7.484 3.035 1.11-1.012 1.683-2.782-.071-3.324-.642-.236-1.305-.12-1.96-.005-.551.097-1.097.192-1.621.077-.52-.088-.948-.434-1.319-.736a10.131 10.131 0 00-.257-.204c-.93-.867-2.327-.108-2.256 1.157z" fill="#F4F4F4"/><path d="M68.127 66.916l-.823 4.373" stroke="#181A1C" stroke-width=".55"/><path d="M65.406 63.05s4.655-1.915 7.233 1.517c0 0-2.757 3.433-4.906 2.855-1.504-.506-2.757-3.252-2.327-4.372z" fill="#181A1C"/><ellipse cx="83.024" cy="62.399" rx="4.404" ry="4.445" fill="#F4F4F4"/><ellipse cx="83.024" cy="62.218" rx="2.399" ry="2.421" fill="#181A1C"/><ellipse cx="84.528" cy="61.207" rx=".931" ry=".94" fill="#F4F4F4"/><path d="M78.62 61.568s1.002-4.517 5.478-3.614c4.154.832 3.33 5.457 3.33 5.457s.501-4.373-3.402-5.131c-4.082-.831-5.407 3.288-5.407 3.288z" fill="#27303D"/><path d="M79.121 53.51c2.328-3.867 7.305-1.59 7.233 2.602-.573-.506-1.074-1.084-1.647-1.59-1.611-1.699-3.509-1.626-5.586-1.012zM72.532 52.498c-.322-.759-.752-1.265-1.146-1.265-1.826-.18-3.724.94-5.657.94.93-1.265 2.255-2.169 3.724-2.53 1.862-.506 4.19.759 3.08 2.855z" fill="#181A1C"/><ellipse cx="108.304" cy="101.751" rx="4.476" ry="4.517" fill="#778694"/><ellipse cx="117.364" cy="85.453" rx="3.259" ry="3.288" fill="#394659"/><path d="M112.457 103.521l7.735-16.478-5.586-3.325-10.134 15.684 7.985 4.119z" fill="#778694"/><path d="M114.606 83.719l-4.404 6.865 2.327-.325-.25 4.264 3.58-2.349.323 3.433 4.082-8.564c-.072-.072-3.474-2.927-5.658-3.325z" fill="#394659"/><ellipse cx="117.687" cy="85.202" rx="3.33" ry="3.361" fill="#394659"/><path d="M113.962 71.867c1.074-.072 1.003 3.18 1.504 4.373.251.686 1.898-9.07 3.581-9.396 1.683-.325.895 6.866.895 6.866s3.151-2.674 3.008 1.662c0 0 3.151.072 2.077 2.783-1.074 2.674-2.578 5.71-4.225 8.058-1.325 1.915-5.336.325-6.231-2.168-1.791-4.698-2.614-12.106-.609-12.178z" fill="#394659"/><path d="M61.074 116.423l-35.845-1.915c-2.327-.072-4.153-2.168-4.082-4.517l-6.23-20.598c.178-2.349 2.148-4.192 4.476-4.12l35.844 1.916c2.327.072 3.258 2.096 4.082 4.517l6.23 20.562c-.071 2.493-2.076 4.228-4.475 4.155z" fill="#CCC"/><path d="M60.5 116.93l-35.844-1.916c-2.328-.18-3.258-2.096-4.082-4.517l-6.23-20.561c.178-2.35 2.148-4.192 4.475-4.12l35.844 1.915c2.328.073 3.26 2.096 4.083 4.517l6.23 20.562c-.143 2.457-2.148 4.3-4.476 4.12z" fill="#E8E8E8"/><path d="M50.438 90.658l2.65.18c.824 0 1.397.76 1.325 1.518 0 .831-.752 1.41-1.504 1.337l-2.65-.18c-.823 0-1.396-.76-1.325-1.518.072-.831.752-1.41 1.504-1.337z" fill="#A9A9A9"/><ellipse cx="52.521" cy="92.193" rx="1.265" ry="1.576" transform="rotate(-81.228 52.521 92.193)" fill="#878787"/><ellipse cx="52.714" cy="92.053" rx=".686" ry="1.003" transform="rotate(-81.32 52.714 92.053)" fill="#5C5C5C"/><path fill-rule="evenodd" clip-rule="evenodd" d="M20.18 101.68c-.43.506-1.075.831-1.648 1.156.43-.18.824-.325 1.254-.325.43 0 .895.072 1.146.434.322.433.322 1.084.071 1.59-.25.506-.752.831-1.146 1.156-.322.253-.68.434-.68.434s1.074-.073 1.576.433c.501.506.501 1.518 0 2.024-.502.578-1.325.759-2.077.578-.43-.072-.752-.325-1.003-.686-.322-.579-.071-1.771.501-2.096-.43 0-1.826.072-2.076-1.157-.251-1.228 1.002-1.59 1.754-2.168-1.253.253-1.826-.831-1.074-1.915.43-.578.895-.831 1.432-1.337.43-.434 1.253-.76 1.826-.578 1.11.18.788 1.77.144 2.457z" fill="#394659"/><path d="M64.081 108.799h1.325s.573 1.011.43 1.59H64.51c-.036-.073-.68-.579-.43-1.59z" fill="#8FBEFF"/><ellipse cx="65.583" cy="109.56" rx=".554" ry=".831" transform="rotate(-15.23 65.583 109.56)" fill="#82ADE8"/><path d="M80.123 124.12c-1.898-5.095-4.082-11.021-9.346-13.479-1.611-.758-3.366-1.12-5.12-1.192M101 62.725c-1.039 18.79-1.827 37.401-2.614 55.975-.394 1.988-.788 3.578-1.146 5.348" stroke="#CCC" stroke-width=".55" stroke-linecap="round"/><path opacity=".65" d="M98.995 109.052h-.251c-.25 0-.501-.253-.501-.506v-1.337c0-.253.25-.506.501-.506h.25c.251 0 .502.253.502.506v1.337c.072.253-.18.506-.501.506z" fill="#B5B5B5"/><ellipse cx="100.14" cy="56.509" rx="1.074" ry="2.168" fill="#fff"/><path d="M100.999 55.028a5.198 5.198 0 011.075 4.12l-.573 4.119s-1.254.578-1.325 0c0-.326.25-1.59.43-2.53.179-.686 0-1.337-.502-1.843l-.573-.578 1.003-3.758.465.47z" fill="#fff"/><path d="M67.376 25.793l4.19-8.13 1.718 1.192-4.655 7.3-1.254-.362z" fill="#FFCA35"/><path d="M58.925 23.191l-2.506-11.383 2.757-.434.895 10.986-1.146.831z" fill="#FF9035"/><path d="M53.41 31.358l-7.555-8.926 2.184-1.59 6.23 8.89-.859 1.626z" fill="#DE7D2E"/><ellipse cx="82.57" cy="66.225" rx="1.337" ry="4.729" transform="rotate(-78.06 82.57 66.225)" fill="#394659"/><path d="M94.088 32.19s1.146 2.276 1.254 2.42c.071.253.179.181.25.253.072.073.18.073.43.073s2.65-.506 2.65-.506l-4.584-2.24z" fill="#BABABA"/><path d="M96.738 32.514l-2.256-1.156s-.322-.18-.5-.18c-.073 0-.502.325-.18.758.25.325.931.904 1.898 1.446.25.072.43.18.501.325.18.072.323.18.573.253 1.074.506 1.826.686 2.256.578.43-.108.501-.506.43-.687-.072-.253-.43-.325-.43-.325l-2.292-1.012z" fill="#878787"/><path d="M97.06 31.936l-2.255-1.156s-.323-.181-.502-.181c-.071 0-.501.325-.179.759.251.325.931.903 1.898 1.445.25.073.43.18.501.325.18.073.323.181.573.253 1.075.506 1.827.687 2.256.579.43-.109.502-.506.43-.687-.072-.253-.43-.325-.43-.325l-2.291-1.012z" fill="#BABABA"/><path d="M97.347 31.25l-2.256-1.157s-.322-.18-.501-.18c-.072 0-.501.325-.18.758.252.325.932.904 1.899 1.446.25.072.43.18.501.325.18.072.322.18.573.253 1.074.506 1.826.687 2.256.578.43-.108.501-.506.43-.687-.072-.252-.43-.325-.43-.325l-2.292-1.012z" fill="#878787"/><path d="M97.67 30.599l-2.256-1.156s-.323-.181-.502-.181c-.071 0-.501.325-.179.759.25.325.931.903 1.898 1.445.25.073.43.181.501.325.18.073.323.181.573.253 1.075.506 1.826.687 2.256.579.43-.109.502-.506.43-.687-.072-.253-.43-.325-.43-.325l-2.291-1.012z" fill="#BABABA"/><path d="M95.091 28.756s-.322.325-.179.759c.25.325.931.903 1.898 1.445.25.072.43.18.501.325.18.073.323.181.573.253 1.075.506 1.826.687 2.256.579.43-.109.502-.579.502-.579l-5.55-2.782z" fill="#878787"/><path d="M95.02 27.31c.072.073.823 1.338 1.325 1.338.501 0 1.325-.506 1.647-1.265.501-.831 1.504-1.843 2.9-2.168 2.4-.434 4.727-3.542 5.157-5.782.501-2.096-.43-3.939-.752-4.373-.251-.072-.43-.18-.43-.18s-3.008-1.843-6.553.18c-3.509 2.024-3.724 6.216-3.509 7.372.215 1.157.824 2.855.501 3.795-.035.686-.143.94-.286 1.084z" fill="#FFDA66"/><path d="M100.82 24.817c-1.503.325-2.327 1.157-2.828 2.024-.43.759-.931 1.517-1.397 1.517-.466 0-1.504-.83-1.576-.903-.071.072-.071.18-.071.253-.43.759-.072 1.265 1.325 2.168.322.18.823.506 1.396.687.573.253 1.146.506 1.504.686 1.504.579 2.077.506 2.507-.325.071-.325.179-.506.68-1.337.502-.831 2.256-1.445 3.259-1.915 1.002-.506 4.082-3.36 3.402-7.372-.502-3.108-2.65-4.517-3.581-5.023.071.325.68 2.168.25 4.264-.465 2.24-2.435 4.843-4.87 5.276z" fill="#EBC54E"/><ellipse opacity=".75" cx="143.048" cy="49.528" rx="1.843" ry="1.826" transform="rotate(-85.96 143.048 49.528)" fill="#FFCA35"/><ellipse opacity=".65" cx="145.724" cy="103.595" rx="1.755" ry="1.771" fill="#348BBD"/><path opacity=".75" d="M46.213 39.814l-2.149 3.36 2.471 3.217-3.795-1.12-2.257 3.36-.178-4.011-3.904-1.012 3.832-1.517-.25-3.94 2.577 3.108 3.653-1.445z" fill="#FFCA35"/><g opacity=".75" fill-rule="evenodd" clip-rule="evenodd"><path d="M33.716 101.427c-.072.036-.144.145-.108.253.108.65.25 1.048.394 1.301.143.253.286.361.466.506.143.108.322.217.43.253.107.036.178.072.178.072l.108.036-.072 1.084.287.072.25-1.047 4.584.397h.107l.716 1.229h.251l-.465-1.193h.107s.072 0 .179-.036.25-.072.394-.145c.215-.144.573-.505.394-1.409a4.521 4.521 0 00-.143-.578c-.072-.217-.359-.361-.645-.398-.215-.036-.43.037-.43.145-.107.289.108.831.072 1.193-.036.325-.25.542-.645.542-.86 0-1.504-.037-2.363-.109-.716-.072-1.218-.108-1.934-.181h-.036a1.303 1.303 0 01-.68-.289 1.511 1.511 0 01-.322-.506c-.143-.361-.18-.686-.358-.975-.072-.109-.215-.181-.394-.217-.108-.072-.215-.036-.322 0z" fill="#6A9F44"/><path d="M39.445 99.8c-.645-.072-4.226-.252-5.12-.216-.86.036-.753.831-.502 1.518h.25c.251.036.502.144.61.361.178.289.214.506.286.795.071.289.179.506.322.65.108.109.25.181.501.181.716.072 1.218.145 1.934.181.86.072 1.504.144 2.328.108.322 0 .393-.144.393-.433.036-.326-.179-.868-.071-1.229.072-.181.322-.217.573-.217-.108-.723-.466-1.59-1.504-1.698z" fill="#A5CD39"/></g></g></g><defs><clipPath id="clip0_0_61"><path fill="#fff" d="M0 0h145v128H0z"/></clipPath></defs></svg>